%TF.GenerationSoftware,KiCad,Pcbnew,9.0.2*%
%TF.CreationDate,2026-05-22T20:30:15-04:00*%
%TF.ProjectId,binary_keyboard,62696e61-7279-45f6-9b65-79626f617264,1.01*%
%TF.SameCoordinates,Original*%
%TF.FileFunction,Soldermask,Top*%
%TF.FilePolarity,Negative*%
%FSLAX46Y46*%
G04 Gerber Fmt 4.6, Leading zero omitted, Abs format (unit mm)*
G04 Created by KiCad (PCBNEW 9.0.2) date 2026-05-22 20:30:15*
%MOMM*%
%LPD*%
G01*
G04 APERTURE LIST*
G04 Aperture macros list*
%AMRoundRect*
0 Rectangle with rounded corners*
0 $1 Rounding radius*
0 $2 $3 $4 $5 $6 $7 $8 $9 X,Y pos of 4 corners*
0 Add a 4 corners polygon primitive as box body*
4,1,4,$2,$3,$4,$5,$6,$7,$8,$9,$2,$3,0*
0 Add four circle primitives for the rounded corners*
1,1,$1+$1,$2,$3*
1,1,$1+$1,$4,$5*
1,1,$1+$1,$6,$7*
1,1,$1+$1,$8,$9*
0 Add four rect primitives between the rounded corners*
20,1,$1+$1,$2,$3,$4,$5,0*
20,1,$1+$1,$4,$5,$6,$7,0*
20,1,$1+$1,$6,$7,$8,$9,0*
20,1,$1+$1,$8,$9,$2,$3,0*%
G04 Aperture macros list end*
%ADD10C,1.800000*%
%ADD11O,2.032000X1.016000*%
%ADD12C,1.143000*%
%ADD13C,3.200000*%
%ADD14RoundRect,0.200000X-1.075000X-1.050000X1.075000X-1.050000X1.075000X1.050000X-1.075000X1.050000X0*%
%ADD15C,1.701800*%
%ADD16C,3.000000*%
%ADD17C,3.987800*%
%ADD18C,1.600000*%
%ADD19C,1.700000*%
%ADD20R,1.700000X1.700000*%
G04 APERTURE END LIST*
D10*
%TO.C,U1 SAMD21*%
X96000490Y-115147464D03*
X98540490Y-115147464D03*
X101080490Y-115147464D03*
X103620490Y-115147464D03*
X106160490Y-115147464D03*
X108700490Y-115147464D03*
X111240490Y-115147464D03*
X111240490Y-98982904D03*
X108700490Y-98982904D03*
X106160490Y-98982904D03*
X103620490Y-98982904D03*
X101080490Y-98982904D03*
X98540490Y-98982904D03*
X96000490Y-98982904D03*
D11*
X112318310Y-108280584D03*
X112318310Y-105730584D03*
D12*
X95314123Y-108281781D03*
X95314123Y-105741781D03*
X97854123Y-108281781D03*
X97854123Y-105741781D03*
%TD*%
D13*
%TO.C,REF\u002A\u002A*%
X102500000Y-46000000D03*
%TD*%
%TO.C,REF\u002A\u002A*%
X102500000Y-122000000D03*
%TD*%
%TO.C,REF\u002A\u002A*%
X193500000Y-122000000D03*
%TD*%
%TO.C,REF\u002A\u002A*%
X193500000Y-46000000D03*
%TD*%
D14*
%TO.C,SW1*%
X149460000Y-104494800D03*
X136533000Y-101954800D03*
D15*
X147455000Y-107034800D03*
D16*
X146185000Y-104494800D03*
D17*
X142375000Y-107034800D03*
D16*
X139835000Y-101954800D03*
D15*
X137295000Y-107034800D03*
%TD*%
D14*
%TO.C,SW2*%
X162033000Y-102000000D03*
X174960000Y-104540000D03*
D15*
X172955000Y-107080000D03*
D16*
X171685000Y-104540000D03*
D17*
X167875000Y-107080000D03*
D16*
X165335000Y-102000000D03*
D15*
X162795000Y-107080000D03*
%TD*%
D18*
%TO.C,R1*%
X143500000Y-49500000D03*
X151120000Y-49500000D03*
%TD*%
D19*
%TO.C,J1*%
X189600000Y-104445000D03*
X189600000Y-106985000D03*
D20*
X189600000Y-109525000D03*
%TD*%
D10*
%TO.C,DS1*%
X115445000Y-55615000D03*
X117985000Y-55585000D03*
X120525000Y-55555000D03*
X123065000Y-55525000D03*
X125605000Y-55495000D03*
X128145000Y-55465000D03*
X130685000Y-55435000D03*
X133225000Y-55405000D03*
X135765000Y-55375000D03*
X138305000Y-55345000D03*
X140845000Y-55315000D03*
X143385000Y-55285000D03*
X145925000Y-55255000D03*
X148465000Y-55225000D03*
X151005000Y-55195000D03*
X153545000Y-55165000D03*
%TD*%
M02*
