M48
; DRILL file {KiCad 9.0.2} date 2026-05-22T20:30:50-0400
; FORMAT={-:-/ absolute / metric / decimal}
; #@! TF.CreationDate,2026-05-22T20:30:50-04:00
; #@! TF.GenerationSoftware,Kicad,Pcbnew,9.0.2
; #@! TF.FileFunction,Plated,1,2,PTH
FMAT,2
METRIC
; #@! TA.AperFunction,Plated,PTH,ViaDrill
T1C0.300
; #@! TA.AperFunction,Plated,PTH,ComponentDrill
T2C0.800
; #@! TA.AperFunction,Plated,PTH,ComponentDrill
T3C1.000
%
G90
G05
T1
X151.0Y-104.0
X177.0Y-104.0
T2
X143.5Y-49.5
X151.12Y-49.5
T3
X96.0Y-98.983
X96.0Y-115.147
X98.54Y-98.983
X98.54Y-115.147
X101.08Y-98.983
X101.08Y-115.147
X103.62Y-98.983
X103.62Y-115.147
X106.16Y-98.983
X106.16Y-115.147
X108.7Y-98.983
X108.7Y-115.147
X111.24Y-98.983
X111.24Y-115.147
X115.445Y-55.615
X117.985Y-55.585
X120.525Y-55.555
X123.065Y-55.525
X125.605Y-55.495
X128.145Y-55.465
X130.685Y-55.435
X133.225Y-55.405
X135.765Y-55.375
X138.305Y-55.345
X140.845Y-55.315
X143.385Y-55.285
X145.925Y-55.255
X148.465Y-55.225
X151.005Y-55.195
X153.545Y-55.165
X189.6Y-104.445
X189.6Y-106.985
X189.6Y-109.525
M30
