%TF.GenerationSoftware,KiCad,Pcbnew,9.0.2*%
%TF.CreationDate,2026-05-22T20:30:15-04:00*%
%TF.ProjectId,binary_keyboard,62696e61-7279-45f6-9b65-79626f617264,1.01*%
%TF.SameCoordinates,Original*%
%TF.FileFunction,Soldermask,Bot*%
%TF.FilePolarity,Negative*%
%FSLAX46Y46*%
G04 Gerber Fmt 4.6, Leading zero omitted, Abs format (unit mm)*
G04 Created by KiCad (PCBNEW 9.0.2) date 2026-05-22 20:30:15*
%MOMM*%
%LPD*%
G01*
G04 APERTURE LIST*
%ADD10C,1.800000*%
%ADD11C,3.200000*%
%ADD12C,1.701800*%
%ADD13C,3.000000*%
%ADD14C,3.987800*%
%ADD15C,1.600000*%
%ADD16C,1.700000*%
%ADD17R,1.700000X1.700000*%
G04 APERTURE END LIST*
D10*
%TO.C,U1 SAMD21*%
X96000490Y-115147464D03*
X98540490Y-115147464D03*
X101080490Y-115147464D03*
X103620490Y-115147464D03*
X106160490Y-115147464D03*
X108700490Y-115147464D03*
X111240490Y-115147464D03*
X111240490Y-98982904D03*
X108700490Y-98982904D03*
X106160490Y-98982904D03*
X103620490Y-98982904D03*
X101080490Y-98982904D03*
X98540490Y-98982904D03*
X96000490Y-98982904D03*
%TD*%
D11*
%TO.C,REF\u002A\u002A*%
X102500000Y-46000000D03*
%TD*%
%TO.C,REF\u002A\u002A*%
X102500000Y-122000000D03*
%TD*%
%TO.C,REF\u002A\u002A*%
X193500000Y-122000000D03*
%TD*%
%TO.C,REF\u002A\u002A*%
X193500000Y-46000000D03*
%TD*%
D12*
%TO.C,SW1*%
X147455000Y-107034800D03*
D13*
X146185000Y-104494800D03*
D14*
X142375000Y-107034800D03*
D13*
X139835000Y-101954800D03*
D12*
X137295000Y-107034800D03*
%TD*%
%TO.C,SW2*%
X172955000Y-107080000D03*
D13*
X171685000Y-104540000D03*
D14*
X167875000Y-107080000D03*
D13*
X165335000Y-102000000D03*
D12*
X162795000Y-107080000D03*
%TD*%
D15*
%TO.C,R1*%
X143500000Y-49500000D03*
X151120000Y-49500000D03*
%TD*%
D16*
%TO.C,J1*%
X189600000Y-104445000D03*
X189600000Y-106985000D03*
D17*
X189600000Y-109525000D03*
%TD*%
D10*
%TO.C,DS1*%
X115445000Y-55615000D03*
X117985000Y-55585000D03*
X120525000Y-55555000D03*
X123065000Y-55525000D03*
X125605000Y-55495000D03*
X128145000Y-55465000D03*
X130685000Y-55435000D03*
X133225000Y-55405000D03*
X135765000Y-55375000D03*
X138305000Y-55345000D03*
X140845000Y-55315000D03*
X143385000Y-55285000D03*
X145925000Y-55255000D03*
X148465000Y-55225000D03*
X151005000Y-55195000D03*
X153545000Y-55165000D03*
%TD*%
M02*
