%TF.GenerationSoftware,KiCad,Pcbnew,9.0.2*%
%TF.CreationDate,2026-05-22T20:30:15-04:00*%
%TF.ProjectId,binary_keyboard,62696e61-7279-45f6-9b65-79626f617264,1.01*%
%TF.SameCoordinates,Original*%
%TF.FileFunction,Copper,L1,Top*%
%TF.FilePolarity,Positive*%
%FSLAX46Y46*%
G04 Gerber Fmt 4.6, Leading zero omitted, Abs format (unit mm)*
G04 Created by KiCad (PCBNEW 9.0.2) date 2026-05-22 20:30:15*
%MOMM*%
%LPD*%
G01*
G04 APERTURE LIST*
G04 Aperture macros list*
%AMRoundRect*
0 Rectangle with rounded corners*
0 $1 Rounding radius*
0 $2 $3 $4 $5 $6 $7 $8 $9 X,Y pos of 4 corners*
0 Add a 4 corners polygon primitive as box body*
4,1,4,$2,$3,$4,$5,$6,$7,$8,$9,$2,$3,0*
0 Add four circle primitives for the rounded corners*
1,1,$1+$1,$2,$3*
1,1,$1+$1,$4,$5*
1,1,$1+$1,$6,$7*
1,1,$1+$1,$8,$9*
0 Add four rect primitives between the rounded corners*
20,1,$1+$1,$2,$3,$4,$5,0*
20,1,$1+$1,$4,$5,$6,$7,0*
20,1,$1+$1,$6,$7,$8,$9,0*
20,1,$1+$1,$8,$9,$2,$3,0*%
G04 Aperture macros list end*
%TA.AperFunction,ComponentPad*%
%ADD10C,1.800000*%
%TD*%
%TA.AperFunction,SMDPad,CuDef*%
%ADD11O,2.032000X1.016000*%
%TD*%
%TA.AperFunction,SMDPad,CuDef*%
%ADD12C,1.143000*%
%TD*%
%TA.AperFunction,SMDPad,CuDef*%
%ADD13RoundRect,0.200000X-1.075000X-1.050000X1.075000X-1.050000X1.075000X1.050000X-1.075000X1.050000X0*%
%TD*%
%TA.AperFunction,ComponentPad*%
%ADD14C,1.600000*%
%TD*%
%TA.AperFunction,ComponentPad*%
%ADD15C,1.700000*%
%TD*%
%TA.AperFunction,ComponentPad*%
%ADD16R,1.700000X1.700000*%
%TD*%
%TA.AperFunction,ViaPad*%
%ADD17C,0.600000*%
%TD*%
%TA.AperFunction,Conductor*%
%ADD18C,0.200000*%
%TD*%
%TA.AperFunction,Conductor*%
%ADD19C,0.500000*%
%TD*%
G04 APERTURE END LIST*
D10*
%TO.P,U1 SAMD21,1,D0*%
%TO.N,/Button_1*%
X96000490Y-115147464D03*
%TO.P,U1 SAMD21,2,D1*%
%TO.N,/Button_2*%
X98540490Y-115147464D03*
%TO.P,U1 SAMD21,3,D2*%
%TO.N,/D2*%
X101080490Y-115147464D03*
%TO.P,U1 SAMD21,4,D3*%
%TO.N,/D3*%
X103620490Y-115147464D03*
%TO.P,U1 SAMD21,5,D4*%
%TO.N,/D4*%
X106160490Y-115147464D03*
%TO.P,U1 SAMD21,6,D5*%
%TO.N,/D5*%
X108700490Y-115147464D03*
%TO.P,U1 SAMD21,7,D6*%
%TO.N,/D6*%
X111240490Y-115147464D03*
%TO.P,U1 SAMD21,8,D7*%
%TO.N,/D7*%
X111240490Y-98982904D03*
%TO.P,U1 SAMD21,9,D8*%
%TO.N,unconnected-(U2-D8-Pad9)*%
X108700490Y-98982904D03*
%TO.P,U1 SAMD21,10,D9*%
%TO.N,unconnected-(U2-D9-Pad10)*%
X106160490Y-98982904D03*
%TO.P,U1 SAMD21,11,D10*%
%TO.N,unconnected-(U2-D10-Pad11)*%
X103620490Y-98982904D03*
%TO.P,U1 SAMD21,12,3V3*%
%TO.N,+3V3*%
X101080490Y-98982904D03*
%TO.P,U1 SAMD21,13,GND*%
%TO.N,GND*%
X98540490Y-98982904D03*
%TO.P,U1 SAMD21,14,5V*%
%TO.N,+5V*%
X96000490Y-98982904D03*
D11*
%TO.P,U1 SAMD21,15*%
%TO.N,N/C*%
X112318310Y-108280584D03*
%TO.P,U1 SAMD21,16*%
X112318310Y-105730584D03*
D12*
%TO.P,U1 SAMD21,17*%
X95314123Y-108281781D03*
%TO.P,U1 SAMD21,18*%
X95314123Y-105741781D03*
%TO.P,U1 SAMD21,19*%
X97854123Y-108281781D03*
%TO.P,U1 SAMD21,20*%
X97854123Y-105741781D03*
%TD*%
D13*
%TO.P,SW1,1,1*%
%TO.N,GND*%
X149460000Y-104494800D03*
%TO.P,SW1,2,2*%
%TO.N,/Button_1*%
X136533000Y-101954800D03*
%TD*%
%TO.P,SW2,2,2*%
%TO.N,/Button_2*%
X162033000Y-102000000D03*
%TO.P,SW2,1,1*%
%TO.N,GND*%
X174960000Y-104540000D03*
%TD*%
D14*
%TO.P,R1,1*%
%TO.N,+5V*%
X143500000Y-49500000D03*
%TO.P,R1,2*%
%TO.N,Net-(DS1-A)*%
X151120000Y-49500000D03*
%TD*%
D15*
%TO.P,J1,3,Pin_3*%
%TO.N,GND*%
X189600000Y-104445000D03*
%TO.P,J1,2,Pin_2*%
%TO.N,/Brightness*%
X189600000Y-106985000D03*
D16*
%TO.P,J1,1,Pin_1*%
%TO.N,+3V3*%
X189600000Y-109525000D03*
%TD*%
D10*
%TO.P,DS1,1,VSS*%
%TO.N,GND*%
X115445000Y-55615000D03*
%TO.P,DS1,2,VDD*%
%TO.N,+5V*%
X117985000Y-55585000D03*
%TO.P,DS1,3,V0*%
%TO.N,/Brightness*%
X120525000Y-55555000D03*
%TO.P,DS1,4,RS*%
%TO.N,/D2*%
X123065000Y-55525000D03*
%TO.P,DS1,5,RW*%
%TO.N,GND*%
X125605000Y-55495000D03*
%TO.P,DS1,6,E*%
%TO.N,/D3*%
X128145000Y-55465000D03*
%TO.P,DS1,7,D0*%
%TO.N,unconnected-(DS1-D0-Pad7)*%
X130685000Y-55435000D03*
%TO.P,DS1,8,D1*%
%TO.N,unconnected-(DS1-D1-Pad8)*%
X133225000Y-55405000D03*
%TO.P,DS1,9,D2*%
%TO.N,unconnected-(DS1-D2-Pad9)*%
X135765000Y-55375000D03*
%TO.P,DS1,10,D3*%
%TO.N,unconnected-(DS1-D3-Pad10)*%
X138305000Y-55345000D03*
%TO.P,DS1,11,D4*%
%TO.N,/D4*%
X140845000Y-55315000D03*
%TO.P,DS1,12,D5*%
%TO.N,/D5*%
X143385000Y-55285000D03*
%TO.P,DS1,13,D6*%
%TO.N,/D6*%
X145925000Y-55255000D03*
%TO.P,DS1,14,D7*%
%TO.N,/D7*%
X148465000Y-55225000D03*
%TO.P,DS1,15,A*%
%TO.N,Net-(DS1-A)*%
X151005000Y-55195000D03*
%TO.P,DS1,16,K*%
%TO.N,GND*%
X153545000Y-55165000D03*
%TD*%
D17*
%TO.N,GND*%
X151000000Y-104000000D03*
X177000000Y-104000000D03*
%TD*%
D18*
%TO.N,GND*%
X149460000Y-104494800D02*
X150505200Y-104494800D01*
X150505200Y-104494800D02*
X151000000Y-104000000D01*
X174960000Y-104540000D02*
X176460000Y-104540000D01*
X176460000Y-104540000D02*
X177000000Y-104000000D01*
%TO.N,/D2*%
X105727954Y-110500000D02*
X114500000Y-110500000D01*
X101080490Y-115147464D02*
X105727954Y-110500000D01*
X114500000Y-110500000D02*
X123065000Y-101935000D01*
X123065000Y-101935000D02*
X123065000Y-55525000D01*
%TO.N,/Brightness*%
X189600000Y-106985000D02*
X149666000Y-67051000D01*
X148591471Y-53653000D02*
X122427000Y-53653000D01*
X149666000Y-67051000D02*
X149666000Y-54727529D01*
X149666000Y-54727529D02*
X148591471Y-53653000D01*
X122427000Y-53653000D02*
X120525000Y-55555000D01*
%TO.N,+3V3*%
X181224000Y-117901000D02*
X96488455Y-117901000D01*
X96488455Y-117901000D02*
X94398490Y-115811035D01*
X95336919Y-113545464D02*
X97454536Y-113545464D01*
X101080490Y-109919510D02*
X101080490Y-98982904D01*
X94398490Y-115811035D02*
X94398490Y-114483893D01*
X189600000Y-109525000D02*
X181224000Y-117901000D01*
X94398490Y-114483893D02*
X95336919Y-113545464D01*
X97454536Y-113545464D02*
X101080490Y-109919510D01*
%TO.N,/D5*%
X143385000Y-55285000D02*
X143385000Y-80615000D01*
X143385000Y-80615000D02*
X132000000Y-92000000D01*
X132000000Y-92000000D02*
X132000000Y-108000000D01*
X132000000Y-108000000D02*
X126053536Y-113946464D01*
X126053536Y-113946464D02*
X109901490Y-113946464D01*
X109901490Y-113946464D02*
X108700490Y-115147464D01*
%TO.N,/Button_2*%
X162033000Y-102000000D02*
X146533000Y-117500000D01*
X146533000Y-117500000D02*
X96654555Y-117500000D01*
X96654555Y-117500000D02*
X94799490Y-115644935D01*
X94799490Y-115644935D02*
X94799490Y-114649993D01*
X94799490Y-114649993D02*
X95503019Y-113946464D01*
X95503019Y-113946464D02*
X97339490Y-113946464D01*
X97339490Y-113946464D02*
X98540490Y-115147464D01*
%TO.N,/Button_1*%
X136093100Y-109906900D02*
X129000000Y-117000000D01*
X136093100Y-102394700D02*
X136093100Y-109906900D01*
X129000000Y-117000000D02*
X97853026Y-117000000D01*
X136533000Y-101954800D02*
X136093100Y-102394700D01*
X97853026Y-117000000D02*
X96000490Y-115147464D01*
%TO.N,/D7*%
X111240490Y-98982904D02*
X111240490Y-66645981D01*
X111240490Y-66645981D02*
X121864000Y-56022471D01*
X121864000Y-56022471D02*
X121864000Y-55027529D01*
X121864000Y-55027529D02*
X122837529Y-54054000D01*
X122837529Y-54054000D02*
X147294000Y-54054000D01*
X147294000Y-54054000D02*
X148465000Y-55225000D01*
%TO.N,/D4*%
X130000000Y-90500000D02*
X140845000Y-79655000D01*
X140845000Y-79655000D02*
X140845000Y-55315000D01*
%TO.N,/D3*%
X107267954Y-111500000D02*
X123500000Y-111500000D01*
X128145000Y-106855000D02*
X128145000Y-55465000D01*
X103620490Y-115147464D02*
X107267954Y-111500000D01*
X123500000Y-111500000D02*
X128145000Y-106855000D01*
%TO.N,/D4*%
X108807954Y-112500000D02*
X124500000Y-112500000D01*
X106160490Y-115147464D02*
X108807954Y-112500000D01*
X124500000Y-112500000D02*
X130000000Y-107000000D01*
X130000000Y-107000000D02*
X130000000Y-90500000D01*
%TO.N,/D6*%
X111240490Y-115147464D02*
X128852536Y-115147464D01*
X145925000Y-84075000D02*
X145925000Y-55255000D01*
X128852536Y-115147464D02*
X134000000Y-110000000D01*
X134000000Y-110000000D02*
X134000000Y-96000000D01*
X134000000Y-96000000D02*
X145925000Y-84075000D01*
D19*
%TO.N,+5V*%
X114950000Y-52550000D02*
X117985000Y-55585000D01*
X114950000Y-52550000D02*
X118000000Y-49500000D01*
X118000000Y-49500000D02*
X143500000Y-49500000D01*
X96000490Y-63499510D02*
X107000000Y-52500000D01*
X107000000Y-52500000D02*
X114900000Y-52500000D01*
X96000490Y-98982904D02*
X96000490Y-63499510D01*
D18*
X114900000Y-52500000D02*
X114950000Y-52550000D01*
D19*
%TO.N,Net-(DS1-A)*%
X151120000Y-49500000D02*
X151120000Y-55080000D01*
D18*
X151120000Y-55080000D02*
X151005000Y-55195000D01*
%TD*%
M02*
